<svg width="20" height="12" viewBox="0 0 20 12" fill="none" xmlns="http://www.w3.org/2000/svg">
<path d="M11.1877 1.0762C11.4166 0.858267 11.7212 0.737787 12.0372 0.740178C12.3533 0.742569 12.656 0.867646 12.8816 1.08902C13.1072 1.31038 13.238 1.61073 13.2463 1.92668C13.2547 2.24263 13.14 2.54947 12.9264 2.78245L6.44265 10.8912C6.33116 11.0113 6.1966 11.1077 6.04702 11.1745C5.89743 11.2414 5.73589 11.2775 5.57206 11.2805C5.40823 11.2835 5.24546 11.2535 5.09351 11.1922C4.94155 11.1309 4.80351 11.0396 4.68765 10.9237L0.387901 6.62395C0.26816 6.51237 0.172119 6.37782 0.105507 6.22832C0.0388948 6.07882 0.00307695 5.91744 0.000189672 5.7538C-0.0026976 5.59016 0.0274049 5.42761 0.0887016 5.27585C0.149998 5.1241 0.241233 4.98624 0.356964 4.87051C0.472694 4.75478 0.610549 4.66355 0.762305 4.60225C0.914061 4.54095 1.07661 4.51085 1.24025 4.51374C1.40389 4.51662 1.56528 4.55244 1.71478 4.61905C1.86427 4.68567 1.99883 4.78171 2.1104 4.90145L5.51315 8.30257L11.1552 1.11195C11.1653 1.0994 11.1761 1.08746 11.1877 1.0762ZM9.69265 9.4287L11.1877 10.9237C11.3035 11.0393 11.4414 11.1304 11.5932 11.1916C11.745 11.2527 11.9076 11.2827 12.0712 11.2797C12.2349 11.2766 12.3962 11.2407 12.5457 11.1739C12.6951 11.1072 12.8296 11.011 12.941 10.8912L19.428 2.78245C19.5446 2.6674 19.6367 2.53005 19.699 2.3786C19.7612 2.22714 19.7924 2.06469 19.7904 1.90095C19.7885 1.73721 19.7536 1.57553 19.6879 1.42557C19.6221 1.27561 19.5268 1.14044 19.4076 1.02815C19.2884 0.915846 19.1478 0.828716 18.9942 0.771959C18.8406 0.715201 18.6771 0.68998 18.5136 0.697802C18.35 0.705624 18.1897 0.746329 18.0422 0.817485C17.8947 0.888641 17.7631 0.988789 17.6552 1.11195L12.0115 8.30257L11.2234 7.51282L9.69103 9.4287H9.69265Z" fill="#A0B3CC"/>
</svg>
